<svg width="108" height="104" viewBox="0 0 108 104" fill="none" xmlns="http://www.w3.org/2000/svg">
<path d="M85.18 81.8235L57.406 103.571L69.9747 44.8259C71.351 38.3934 75.3807 32.8416 81.0701 29.5398L108 13.9108L93.3485 69.4176C92.051 74.3329 89.1825 78.6894 85.18 81.8235Z" fill="#183B34"/>
<path d="M56.0495 9.52122C56.0495 23.5094 59.158 30.5034 65.375 30.5034C59.158 30.5034 56.0495 37.4975 56.0495 51.4856C56.0495 37.4975 52.9411 30.5034 46.7241 30.5034C52.9411 30.5034 56.0495 23.5094 56.0495 9.52122Z" fill="#75465A"/>
<path d="M10.8791 56.906L0 0L28.6509 20.4649C33.5014 23.9296 36.8406 29.1207 37.9822 34.9712L51.2505 102.971L17.2928 69.0135C13.9904 65.7112 11.756 61.4931 10.8791 56.906Z" fill="#D9AE4B"/>
</svg>
